<svg width="105" height="92" viewBox="0 0 105 92" fill="none" xmlns="http://www.w3.org/2000/svg">
<g clip-path="url(#clip0_1041_2)">
<circle cx="0.5" cy="0.5" r="0.5" fill="#D9D9D9"/>
<circle cx="13.5" cy="0.5" r="0.5" fill="#D9D9D9"/>
<circle cx="26.5" cy="0.5" r="0.5" fill="#D9D9D9"/>
<circle cx="39.5" cy="0.5" r="0.5" fill="#D9D9D9"/>
<circle cx="52.5" cy="0.5" r="0.5" fill="#D9D9D9"/>
<circle cx="65.5" cy="0.5" r="0.5" fill="#D9D9D9"/>
<circle cx="78.5" cy="0.5" r="0.5" fill="#D9D9D9"/>
<circle cx="91.5" cy="0.5" r="0.5" fill="#D9D9D9"/>
<circle cx="104.5" cy="0.5" r="0.5" fill="#D9D9D9"/>
<circle cx="0.5" cy="13.5" r="0.5" fill="#D9D9D9"/>
<circle cx="13.5" cy="13.5" r="0.5" fill="#D9D9D9"/>
<circle cx="26.5" cy="13.5" r="0.5" fill="#D9D9D9"/>
<circle cx="39.5" cy="13.5" r="0.5" fill="#D9D9D9"/>
<circle cx="52.5" cy="13.5" r="0.5" fill="#D9D9D9"/>
<circle cx="65.5" cy="13.5" r="0.5" fill="#D9D9D9"/>
<circle cx="78.5" cy="13.5" r="0.5" fill="#D9D9D9"/>
<circle cx="91.5" cy="13.5" r="0.5" fill="#D9D9D9"/>
<circle cx="104.5" cy="13.5" r="0.5" fill="#D9D9D9"/>
<circle cx="0.5" cy="26.5" r="0.5" fill="#D9D9D9"/>
<circle cx="13.5" cy="26.5" r="0.5" fill="#D9D9D9"/>
<circle cx="26.5" cy="26.5" r="0.5" fill="#D9D9D9"/>
<circle cx="39.5" cy="26.5" r="0.5" fill="#D9D9D9"/>
<circle cx="52.5" cy="26.5" r="0.5" fill="#D9D9D9"/>
<circle cx="65.5" cy="26.5" r="0.5" fill="#D9D9D9"/>
<circle cx="78.5" cy="26.5" r="0.5" fill="#D9D9D9"/>
<circle cx="91.5" cy="26.5" r="0.5" fill="#D9D9D9"/>
<circle cx="104.5" cy="26.5" r="0.5" fill="#D9D9D9"/>
<circle cx="0.5" cy="39.5" r="0.5" fill="#D9D9D9"/>
<circle cx="13.5" cy="39.5" r="0.5" fill="#D9D9D9"/>
<circle cx="26.5" cy="39.5" r="0.5" fill="#D9D9D9"/>
<circle cx="39.5" cy="39.5" r="0.5" fill="#D9D9D9"/>
<circle cx="52.5" cy="39.5" r="0.5" fill="#D9D9D9"/>
<circle cx="65.5" cy="39.5" r="0.5" fill="#D9D9D9"/>
<circle cx="78.5" cy="39.5" r="0.5" fill="#D9D9D9"/>
<circle cx="91.5" cy="39.5" r="0.5" fill="#D9D9D9"/>
<circle cx="104.5" cy="39.5" r="0.5" fill="#D9D9D9"/>
<circle cx="0.5" cy="52.5" r="0.5" fill="#D9D9D9"/>
<circle cx="13.5" cy="52.5" r="0.5" fill="#D9D9D9"/>
<circle cx="26.5" cy="52.5" r="0.5" fill="#D9D9D9"/>
<circle cx="39.5" cy="52.5" r="0.5" fill="#D9D9D9"/>
<circle cx="52.5" cy="52.5" r="0.5" fill="#D9D9D9"/>
<circle cx="65.5" cy="52.5" r="0.5" fill="#D9D9D9"/>
<circle cx="78.5" cy="52.5" r="0.5" fill="#D9D9D9"/>
<circle cx="91.5" cy="52.5" r="0.5" fill="#D9D9D9"/>
<circle cx="104.5" cy="52.5" r="0.5" fill="#D9D9D9"/>
<circle cx="0.5" cy="65.5" r="0.5" fill="#D9D9D9"/>
<circle cx="13.5" cy="65.5" r="0.5" fill="#D9D9D9"/>
<circle cx="26.5" cy="65.5" r="0.5" fill="#D9D9D9"/>
<circle cx="39.5" cy="65.5" r="0.5" fill="#D9D9D9"/>
<circle cx="52.5" cy="65.5" r="0.5" fill="#D9D9D9"/>
<circle cx="65.5" cy="65.5" r="0.5" fill="#D9D9D9"/>
<circle cx="78.5" cy="65.5" r="0.5" fill="#D9D9D9"/>
<circle cx="91.5" cy="65.5" r="0.5" fill="#D9D9D9"/>
<circle cx="104.5" cy="65.5" r="0.5" fill="#D9D9D9"/>
<circle cx="0.5" cy="78.5" r="0.5" fill="#D9D9D9"/>
<circle cx="13.5" cy="78.5" r="0.5" fill="#D9D9D9"/>
<circle cx="26.5" cy="78.5" r="0.5" fill="#D9D9D9"/>
<circle cx="39.5" cy="78.5" r="0.5" fill="#D9D9D9"/>
<circle cx="52.5" cy="78.5" r="0.5" fill="#D9D9D9"/>
<circle cx="65.5" cy="78.5" r="0.5" fill="#D9D9D9"/>
<circle cx="78.5" cy="78.5" r="0.5" fill="#D9D9D9"/>
<circle cx="91.5" cy="78.5" r="0.5" fill="#D9D9D9"/>
<circle cx="104.5" cy="78.5" r="0.5" fill="#D9D9D9"/>
<circle cx="0.5" cy="91.5" r="0.5" fill="#D9D9D9"/>
<circle cx="13.5" cy="91.5" r="0.5" fill="#D9D9D9"/>
<circle cx="26.5" cy="91.5" r="0.5" fill="#D9D9D9"/>
<circle cx="39.5" cy="91.5" r="0.5" fill="#D9D9D9"/>
<circle cx="52.5" cy="91.5" r="0.5" fill="#D9D9D9"/>
<circle cx="65.5" cy="91.5" r="0.5" fill="#D9D9D9"/>
<circle cx="78.5" cy="91.5" r="0.5" fill="#D9D9D9"/>
<circle cx="91.5" cy="91.5" r="0.5" fill="#D9D9D9"/>
<circle cx="104.5" cy="91.5" r="0.5" fill="#D9D9D9"/>
</g>
<defs>
<clipPath id="clip0_1041_2">
<rect width="105" height="92" fill="white"/>
</clipPath>
</defs>
</svg>
